<?xml version="1.0" encoding="UTF-8" standalone="no"?>
<!DOCTYPE svg PUBLIC "-//W3C//DTD SVG 1.1//EN" "http://www.w3.org/Graphics/SVG/1.1/DTD/svg11.dtd">
<svg width="100%" height="100%" viewBox="0 0 123 123" version="1.1" xmlns="http://www.w3.org/2000/svg" xmlns:xlink="http://www.w3.org/1999/xlink" xml:space="preserve" xmlns:serif="http://www.serif.com/" style="fill-rule:evenodd;clip-rule:evenodd;stroke-linejoin:round;stroke-miterlimit:2;">
    <g transform="matrix(0.297865,0,0,0.297865,-6.303423,-5.363896)">
        <g opacity="0.33">
            <path d="M31.003,163.36C32.047,160.414 39.008,140.765 46.449,127.471C113.121,8.357 260.079,-6.119 348.424,61.605C499.318,177.278 430.672,411.164 244.543,429.911C109.998,443.544 -15.33,314.005 31.003,163.36Z" style="fill:white;"/>
            <path d="M420.498,261.5C392.56,410.073 217.306,473.576 101.152,378.926C-19.244,280.82 16.23,88.056 163.449,38.356C300.916,-8.052 447.513,108.681 420.498,261.5Z" style="fill:rgb(27,60,45);"/>
            <path d="M352.819,227.504C352.715,229.319 354.567,273.595 319.071,312.085C248.607,388.494 112.628,352.608 99.86,237.462C90.835,156.064 171.257,74.5 267.346,105.991C289.271,113.176 311.75,129.719 324.224,145.713C349.133,177.652 352.35,203.239 352.819,227.504Z" style="fill:white;"/>
            <path d="M232.493,349.254C105.209,352.123 58.992,199.732 150.807,127.935C203.307,86.882 296.32,90.59 338.121,173.702C371.117,239.307 332.292,342.657 232.493,349.254Z" style="fill:rgb(27,60,45);"/>
            <path d="M196.801,270.189C201.328,271.838 210.738,269.371 211.141,272.557C211.208,273.088 211.328,298.859 211.073,299.374C210.204,301.135 209.471,300.589 154.499,300.648C150.459,300.652 151.368,298.487 151.348,274.501C151.343,268.943 153.959,270.792 159.5,270.817C161.526,270.826 166.302,271.508 166.339,268.491C166.422,261.552 167.36,183.797 166.019,181.76C164.406,179.31 151.422,183.591 151.343,178.505C150.942,152.414 151.275,151.38 153.459,151.185C153.729,151.161 209.174,151.112 209.568,151.211C211.69,151.742 211.948,152.507 211.199,178.498C211.144,180.418 210.249,180.921 208.507,180.941C203.912,180.994 196.258,179.799 196.197,183.482C195.766,209.194 195.328,210.02 197.376,210.788C198.05,211.041 253.476,211.208 254.617,210.801C256.375,210.175 255.908,207.784 256.031,190.5C256.036,189.784 256.09,182.26 255.434,181.566C253.989,180.036 241.781,182.34 241.174,179.614C240.948,178.599 240.821,153.31 241.182,152.359C241.641,151.15 242.138,151.123 297.5,151.127C303.119,151.128 300.827,153.936 300.824,159.5C300.815,177.174 301.692,180.708 298.543,180.943C293.842,181.293 285.941,179.439 285.84,183.507C285.208,208.964 285.765,260.777 285.837,267.496C285.919,275.068 300.794,267.003 300.844,273.493C301.035,298.383 301.788,298.738 300.175,300.133C299.88,300.389 299.874,300.716 244.5,300.647C239.818,300.642 240.884,297.98 241.033,274.499C241.069,268.792 243.771,270.815 249.502,270.819C250.011,270.819 255.27,270.822 255.76,269.623C255.972,269.104 256.583,242.85 255.442,241.551C254.172,240.106 253.722,240.89 204.5,240.787C200.142,240.778 196.223,239.881 196.187,243.484C195.949,267.755 196.095,268.172 196.801,270.189Z" style="fill:white;"/>
            <path d="M136.571,87.498C137.48,74.006 148.657,75.084 150.434,73.431C153.159,70.895 152.808,70.252 156.496,69.483C158.363,69.094 158.757,69.597 169.232,89.644C181.228,112.6 149.038,117.747 148.993,111.531C148.95,105.674 152.968,106.093 153.528,106.151C164.839,107.329 165.403,92.032 160.622,96.625C148.785,107.998 138.242,99.101 136.571,87.498Z" style="fill:white;"/>
            <path d="M254.529,44.243C260.242,45.356 259.079,47.208 261.384,56.529C261.954,58.834 266.703,78.042 267.781,85.505C268.153,88.077 259.239,87.042 258.59,84.469C258.005,82.146 258.436,78.425 254.457,77.841C244.126,76.326 242.003,75.538 240.73,77.636C239.109,80.307 239.179,83.85 230.436,81.665C227.352,80.894 235.547,69.899 239.156,63.302C240.132,61.517 248.037,48.009 248.814,46.681C250.844,43.212 251.549,44.047 254.529,44.243Z" style="fill:white;"/>
            <path d="M326.134,118.117C334.493,109.477 337.958,107.38 335.626,103.417C331.674,96.7 322.195,109.27 319.244,112.249C317.137,114.376 316.096,113.128 312.939,110.067C311.181,108.362 311.515,107.302 321.886,96.888C328.614,90.132 331.153,85.567 336.015,93.747C339.377,99.404 343.639,96.544 345.6,104.478C346.977,110.047 350.113,106.823 354.352,110.672C364.972,120.313 351.513,130.284 347.489,134.49C347.265,134.451 347.2,134.977 346.976,134.939C344.592,134.528 344.817,133.933 344.62,133.984C335.904,136.25 344.798,129.343 345.333,128.406C346.785,125.867 345.022,126.149 344.212,125.231C348.57,120.754 350.137,119.36 348.662,116.419C344.95,109.022 336.673,119.919 332.84,123.822C331.912,123.471 332.424,122.875 331.5,122.526C330.928,122.309 331.139,123.099 330.521,122.944C330.252,122.876 328.429,122.419 328.009,120.557C327.476,118.199 326.656,118.796 326.134,118.117Z" style="fill:white;"/>
            <path d="M349.588,140.55C350.275,139.636 354.997,133.355 361.528,132.7C375.527,131.295 375.945,145.101 377.535,146.444C378.034,146.865 382.337,150.497 381.574,153.526C381.281,154.692 359.756,166.829 358.471,166.654C357.03,166.459 354.611,161.144 354.512,160.499C353.529,154.068 343.8,154.604 349.588,140.55Z" style="fill:white;"/>
            <path d="M200.5,85.529C174.671,83.219 186.376,50.035 206.332,56.998C219.377,61.55 221.366,83.63 200.5,85.529Z" style="fill:white;"/>
            <path d="M106.722,142.47C107.457,169.135 71.797,163.075 77.71,141.559C81.51,127.733 102.821,124.59 106.722,142.47Z" style="fill:white;"/>
            <path d="M301.489,73.359C322.523,73.936 318.568,100.472 310.757,96.011C309.7,95.407 299.467,89.563 297.461,88.614C293.634,86.805 295.931,96.246 303.494,96.63C310.679,96.995 307.804,103.03 306.437,103.236C287.544,106.091 278.129,77.713 301.489,73.359Z" style="fill:white;"/>
            <path d="M116.647,119.256C116.029,118.76 111.588,115.199 110.459,111.514C104.877,93.303 130.249,85.752 136.1,98.662C137.738,102.274 117.137,112.955 124.406,113.859C133.036,114.932 131.222,103.57 138.662,106.066C142.551,107.371 134.717,127.498 116.647,119.256Z" style="fill:white;"/>
            <path d="M376.44,186.284C377.224,186.019 381.561,185.15 383.098,183.221C383.471,182.752 384.074,181.174 384.061,180.507C383.883,171.613 368.192,179.057 364.555,179.769C361.211,180.424 360.387,173.42 360.691,172.575C361.372,170.684 361.959,171.235 384.529,164.61C389.128,163.26 388.717,170.87 388.683,171.513C388.499,174.912 389.835,174.427 391.255,177.619C397.082,190.714 382.563,194.308 369.502,197.513C367.415,198.026 365.965,192.001 365.832,191.45C365.23,188.949 373,187.336 376.44,186.284Z" style="fill:white;"/>
            <path d="M59.037,174.498C61.02,193.086 88.057,189.097 84.049,170.618C83.014,165.848 90.58,163.459 91.568,166.474C98.76,188.428 72.362,207.097 55.087,187.84C55.998,186.88 58.003,186.934 56.152,184.596C54.755,182.833 55.173,182.721 54.874,180.5L54.5,179.5C54.71,179.29 54.032,178.857 54.242,178.647C54.541,178.349 55.085,178.578 55.5,178.501C56.925,178.237 56.915,177.648 57.159,177.5L57.185,176.5L57.28,175.5L59.037,174.498Z" style="fill:white;"/>
            <path d="M109.519,132.477C86.648,112.951 86.515,113.172 84.579,111.419C82.004,109.086 87.447,102.349 90.304,104.73C92.614,106.654 114.802,125.145 119.047,128.934C120.63,130.347 117.74,133.216 117.03,134.11C114.037,137.88 113.171,135.663 109.519,132.477Z" style="fill:white;"/>
            <path d="M278.333,68.443C283.519,53.84 283.397,53.909 283.922,52.678C285.528,48.917 286.71,51.029 290.569,52.311C290.839,52.401 292.998,53.118 292.265,55.435C291.392,58.191 280.241,89.322 279.717,90.618C278.997,92.398 273.941,90.75 273.465,90.595C270.337,89.575 271.247,88.051 278.333,68.443Z" style="fill:white;"/>
            <path d="M147.317,362.16C148.915,359.819 153.322,352.036 154.596,355.437C155.416,357.629 154.338,357.59 142.963,375.786C141.616,377.941 140.81,378.882 138.767,376.311C138.437,375.897 125.372,372.933 130.216,362.359C133.314,355.598 141.913,355.613 145.028,359.905C145.997,361.241 145.858,361.318 147.317,362.16Z" style="fill:white;"/>
            <path d="M374.622,270.19C392.945,276.81 394.782,277.307 393.206,279.308C390.471,282.781 392.687,291.485 383.509,291.843C374.863,292.18 370.012,282.313 375.891,276.793C380.191,272.755 372.631,275.762 368.657,271.381C368.092,270.758 368.313,269.386 368.876,268.99C369.641,268.451 374.178,270.036 374.622,270.19Z" style="fill:white;"/>
            <path d="M349.633,323.726C361.612,318.722 368.723,333.498 359.432,339.372C357.248,340.753 358.199,341.559 356.354,343.327C354.272,345.323 335.669,327.531 335.654,327.458C334.227,320.687 344.433,332.074 345.393,330.399C347.051,327.504 346.058,326.856 349.633,323.726Z" style="fill:white;"/>
            <path d="M94.402,340.566C93.901,339.452 89.337,329.288 100.518,326.575C109.096,324.494 108.942,332.228 113.381,334.669C114.848,335.476 114.932,336.816 104.133,346.086C99.916,349.705 100.062,344.705 99.237,343.979C97.257,342.236 96.659,343.115 94.402,340.566Z" style="fill:white;"/>
            <path d="M228.499,382.305C240.633,383.539 238.848,395.97 234.219,399.094C220.972,408.036 211.342,384.102 228.499,382.305Z" style="fill:white;"/>
            <path d="M367.487,303.304C379.946,303.871 379.007,317.014 373.406,320.345C360.351,328.11 351.488,306.036 367.487,303.304Z" style="fill:white;"/>
            <path d="M58.503,261.469C56.913,261.187 56.766,261.641 55.546,260.457C51.858,256.877 59.183,258.041 59.55,258.099C74.887,260.536 88.009,259.815 79.825,265.946C64.81,277.193 61.5,280.145 59.938,279.231C56.997,277.511 64.807,275.081 63.694,270.458C63.115,268.054 63.171,262.199 58.503,261.469Z" style="fill:white;"/>
            <path d="M174.26,85.583C168.699,68.996 168.6,69.052 168.155,67.599C166.913,63.549 169.412,64.617 173.458,63.354C176.742,62.329 178.202,69.686 178.774,71.409C183.716,86.278 185.96,88.244 181.377,90.172C174.411,93.101 174.422,85.936 174.26,85.583Z" style="fill:white;"/>
            <path d="M339.446,340.619C344.984,344.449 351.596,353.745 346.42,352.825C345.411,352.646 335.796,337.726 332.642,346.563C330.6,352.285 342.32,358.069 338.4,360.349C335.509,362.031 327.149,344.512 323.207,354.38C321.22,359.355 334.561,367.988 328.47,368.315C327.382,368.373 315.558,356.292 318.107,354.057C319.749,352.617 320.26,353.265 321.402,351.442C324.729,346.131 328.437,348.963 329.485,346.492C330.911,343.129 332.271,338.767 339.446,340.619Z" style="fill:white;"/>
            <path d="M290.767,364.403C298.129,383.643 298.822,383.656 298.063,385.252C297.455,386.532 295.33,386.294 294.901,385.261C292.044,378.382 292.332,378.282 292.057,377.697C290.384,374.131 279.376,380.023 279.367,381.499C279.359,382.699 284.914,393.531 280.54,392.183C278.557,391.572 270.489,369.844 271.288,368.314C271.794,367.345 273.91,367.741 274.288,368.629C277.104,375.241 276.037,377.616 279.521,376.581C290.325,373.371 289.623,371.425 289.311,370.56C288.595,368.575 287.764,366.633 287.036,364.653C286.933,364.372 287.63,357.327 290.767,364.403Z" style="fill:white;"/>
            <path d="M69.355,301.517C69.412,299.043 68.875,298.975 69.953,296.693C76.708,282.399 96.986,299.161 83.406,307.312C79,309.958 75.756,293.193 73.4,297.409C70.341,302.881 76.582,306.334 76.736,307.476C77.073,309.994 71.22,310.37 69.355,301.517Z" style="fill:white;"/>
            <path d="M156.572,386.329C153.522,384.379 152.925,384.93 151.524,381.49C146.074,368.114 168.523,363.233 168.761,376.497C168.975,388.393 154.456,373.444 154.129,378.438C153.8,383.46 163.102,384.28 163.338,384.605C163.665,385.058 164.448,388.533 156.572,386.329Z" style="fill:white;"/>
            <path d="M59.037,174.498L57.28,175.5L57.185,176.5L57.159,177.5C56.915,177.648 56.925,178.237 55.5,178.501C55.085,178.578 54.541,178.349 54.242,178.647C54.032,178.857 54.71,179.29 54.5,179.5L54.874,180.5C55.173,182.721 54.755,182.833 56.152,184.596C58.003,186.934 55.998,186.88 55.087,187.84C43.013,172.543 59.468,151.898 62.692,157.367C65.103,161.458 66.007,162.225 62.556,165.556C59.757,168.256 59.125,173.734 59.037,174.498Z" style="fill:white;"/>
            <path d="M125.551,345.417C131.267,350.031 129.73,353.842 123.13,361.172C118.779,366.004 118.413,361.862 118.521,361.508C118.686,360.967 131.078,349.23 121.575,347.143C116.348,345.995 109.511,360.587 108.617,354.469C108.459,353.391 119.044,338.848 121.02,341.91C121.41,342.515 120.671,343.41 125.551,345.417Z" style="fill:white;"/>
            <path d="M257.413,394.511C257.297,393.788 256.129,386.503 255.402,385.576C254.168,384.007 252.725,383.876 252.453,383.851C243.633,383.049 249.597,397.694 248.15,399.102C245.353,401.826 244.507,394.681 243.173,384.53C243.143,384.295 242.847,382.049 244.564,381.916C247.041,381.723 247.068,382.266 249.349,381.209C260.5,376.043 261.973,395.997 260.317,397.247C258.164,398.872 258.407,396.976 257.413,394.511Z" style="fill:white;"/>
            <path d="M306.663,378.165C300.374,373.187 298.807,366.056 298.939,365.735C301.195,360.256 305.311,376.1 310.497,375.479C318.782,374.487 309.622,361.935 309.431,361.531C308.449,359.449 310.815,357.809 312.278,359.671C320.781,370.5 317.872,381.857 306.663,378.165Z" style="fill:white;"/>
            <path d="M82.501,319.463C76.456,318.937 77.643,317.069 77.874,316.705C78.678,315.44 79.04,316.141 85.504,316.359C90.143,316.516 89.84,308.803 91.585,307.683C95.158,305.389 92.431,313.917 92.266,314.434C90.831,318.924 100.49,315.563 100.351,319.488C100.288,321.25 99.389,320.322 92.489,320.145C88.335,320.038 88.308,331.213 85.615,329.336C82.88,327.43 84.856,326.802 86.485,321.496C87.345,318.695 85.474,319.781 82.501,319.463Z" style="fill:white;"/>
            <path d="M98.465,145.5C96.042,159.244 78.286,146.697 88.616,139.693C90.556,138.377 97.528,137.695 98.465,145.5Z" style="fill:rgb(27,60,45);"/>
            <path d="M205.07,65.984C210.711,73.724 203.283,76.803 202.435,77.155C189.499,77.43 193.463,59.733 205.07,65.984Z" style="fill:rgb(27,60,45);"/>
            <path d="M357.273,145.387C357.62,144.913 360.143,141.464 363.5,141.489C364.896,141.499 367.34,142.281 368.581,144.448C374.501,154.79 353.331,159.12 357.273,145.387Z" style="fill:rgb(27,60,45);"/>
            <path d="M215.32,385.392C208.961,395.098 206.066,403.435 203.661,396.447C198.84,382.435 198.62,379.604 201.365,380.915C204.306,382.32 205.022,395.616 207.364,392.365C207.864,391.671 212.832,380.762 215.474,382.548C216.659,383.349 215.875,383.614 215.32,385.392Z" style="fill:white;"/>
            <path d="M390.445,265.678C384.217,263.825 383.895,262.559 382.216,264.235C381.399,265.051 381.898,265.288 381.133,266.19C378.18,269.67 379.426,262.377 377.438,261.649C373.82,260.324 373.258,260.881 372.841,259.389C371.622,255.024 379.463,259.762 380.644,257.6C383.512,252.349 384.132,257.18 384.094,257.453C383.388,262.578 394.619,262.032 396.579,264.443C399.928,268.561 390.924,265.824 390.445,265.678Z" style="fill:white;"/>
            <path d="M205.07,65.984L206.921,64.5C206.964,64.033 206.456,63.625 206.5,63.158C206.532,62.815 207.119,62.679 207.123,62.335C207.129,61.767 206.389,62.18 206.518,61.534C206.677,60.739 207.343,61.232 207.5,60.447L208.5,60.649C209.869,62.083 209.934,61.934 210.817,63.362C215.169,70.403 213.648,72.812 211.785,75.676C210.579,77.53 209.591,76.558 208.719,78.512C207.949,80.236 208.176,80.487 207.484,80.496C207.222,80.499 207.533,79.716 204.445,79.275C204.214,79.242 204.299,79.121 202.435,77.155C203.283,76.803 210.711,73.724 205.07,65.984Z" style="fill:white;"/>
            <path d="M157.482,86.503C157.015,99.73 139.4,89.825 147.592,82.617C154.157,76.841 157.205,85.699 157.482,86.503Z" style="fill:rgb(27,60,45);"/>
            <path d="M228.499,385.723C240.93,387.484 230.633,403.965 223.892,395.216C221.939,392.681 222.991,389.814 223.154,389.371C224.153,386.646 227.993,385.831 228.499,385.723Z" style="fill:rgb(27,60,45);"/>
            <path d="M373.727,314.58C365.971,326.242 357.146,310.069 366.38,307.121C367.295,306.829 375.093,306.167 373.727,314.58Z" style="fill:rgb(27,60,45);"/>
            <path d="M378.547,286.451C372.723,278.632 382.168,276.808 382.49,276.817C392.078,277.081 389.781,293.901 378.547,286.451Z" style="fill:rgb(27,60,45);"/>
            <path d="M132.732,366.506C132.738,366.476 132.687,362.717 136.623,360.76C138.122,360.015 140.652,360.208 142.315,361.73C149.79,368.571 134.145,378.802 132.732,366.506Z" style="fill:rgb(27,60,45);"/>
            <path d="M358.169,327.866C366.473,338.036 348.263,341.372 348.452,331.501C348.491,329.477 349.883,327.378 351.548,326.59C355.245,324.841 358.105,327.826 358.169,327.866Z" style="fill:rgb(27,60,45);"/>
            <path d="M104.291,341.008C91.483,343.854 97.03,324.748 106.145,330.934C112.42,335.193 104.958,340.531 104.291,341.008Z" style="fill:rgb(27,60,45);"/>
            <path d="M74.422,282.264C81.64,279.561 89.019,275.845 88.664,279.513C88.5,281.216 65.347,290.141 63.929,289.003C61.091,286.725 69.607,284.141 74.422,282.264Z" style="fill:white;"/>
            <path d="M374.655,299.19C361.014,292.525 359.728,292.1 360.027,290.329C360.345,288.447 361.666,288.926 382.271,298.956C382.506,299.071 384.49,300.036 384.361,301.47C384.074,304.658 374.667,299.195 374.655,299.19Z" style="fill:white;"/>
            <path d="M173.456,382.489C175.585,376.174 175.392,376.119 175.754,375.671C176.585,374.645 177.464,374.969 177.612,375.024C180.004,375.906 179.88,376.092 182.52,376.277C187.653,376.637 188.046,381.779 184.512,380.465C176.245,377.392 177.288,382.16 174.622,390.549C174.025,392.429 172.12,392.184 171.569,391.445C171.004,390.687 173.246,383.19 173.456,382.489Z" style="fill:white;"/>
            <path d="M380.477,132.594C381.427,132.893 390.609,134.746 389.665,137.548C387.683,143.436 386.013,142.578 385.564,142.347C374.321,136.57 377.553,133.889 378.168,133.184C379.161,132.045 380.305,132.606 380.477,132.594Z" style="fill:white;"/>
            <path d="M254.407,63.517C255.27,68.713 256.519,69.363 254.446,70.265C254.207,70.369 246.718,69.673 246.436,68.536C246.345,68.169 246.451,68.176 251.498,57.498C251.973,56.49 252.13,56.506 253.127,56.873C253.635,57.06 253.421,57.249 254.407,63.517Z" style="fill:rgb(27,60,45);"/>
            <path d="M391.571,226.511C386.789,237.245 377.51,224.672 384.494,221.488C390.986,218.528 391.521,225.818 391.571,226.511Z" style="fill:white;"/>
            <path d="M69.609,227.539C64.018,236.542 55.859,223.63 63.409,221.234C70.81,218.885 69.706,226.838 69.609,227.539Z" style="fill:white;"/>
            <path d="M168.501,60.476C168.11,60.388 165.203,59.732 164.442,57.522C163.588,55.041 164.731,53.148 164.972,52.853C170.271,46.359 179.22,58.945 168.501,60.476Z" style="fill:white;"/>
            <path d="M344.212,125.231C345.022,126.149 346.785,125.867 345.333,128.406C344.798,129.343 335.904,136.25 344.62,133.984C344.817,133.933 344.592,134.528 346.976,134.939C347.2,134.977 347.265,134.451 347.489,134.49C343.901,137.995 344.028,138.018 343.417,138.292C341.972,138.942 338.154,134.692 337.784,134.28C336.003,132.298 343.142,126.314 344.212,125.231Z" style="fill:white;"/>
            <path d="M70.537,268.551C68.167,269.829 67.522,271.62 66.696,269.387C66.504,268.869 64.106,262.384 66.496,262.479C75.758,262.85 75.836,263.791 75.792,264.551C75.761,265.079 75.668,265.121 70.537,268.551Z" style="fill:rgb(27,60,45);"/>
            <path d="M305.634,81.167C312.854,85.856 309.085,87.597 308.52,87.647C308.377,87.659 296.367,82.988 300.713,80.994C302.185,80.319 305.251,81.073 305.634,81.167Z" style="fill:rgb(27,60,45);"/>
            <path d="M120.281,106.224C112.887,111.15 118.862,96.181 125.513,99.483C127.433,100.437 123.697,103.285 120.281,106.224Z" style="fill:rgb(27,60,45);"/>
            <path d="M81.687,295.161C82.182,295.593 87.394,300.154 83.305,303.215C81.47,304.589 74.239,291.497 81.687,295.161Z" style="fill:rgb(27,60,45);"/>
            <path d="M165.387,375.516C165.199,377.306 165.185,378.096 163.508,377.461C162.979,377.261 150.022,372.355 159.512,371.628C163.198,371.346 165.125,375.017 165.387,375.516Z" style="fill:rgb(27,60,45);"/>
            <path d="M326.134,118.117C326.656,118.796 327.476,118.199 328.009,120.557C328.429,122.419 330.252,122.876 330.521,122.944C331.139,123.099 330.928,122.309 331.5,122.526C332.424,122.875 331.912,123.471 332.84,123.822C330.802,125.615 330.684,127.182 328.624,125.35C325.061,122.182 322.877,121.593 326.134,118.117Z" style="fill:white;"/>
            <path d="M332.877,96.51C332.602,96.792 329.929,99.529 328.491,98.757C325.55,97.179 331.734,89.812 332.877,96.51Z" style="fill:white;"/>
            <path d="M194.199,61.015L195.635,60.5L196.5,59.703L197.5,59.64C197.746,59.809 198.137,59.332 198.383,59.5C199.571,60.312 197.742,61.713 197.586,61.833C195.216,63.649 194.775,61.423 194.199,61.015Z" style="fill:white;"/>
        </g>
    </g>
</svg>
