<?xml version="1.0" encoding="UTF-8" standalone="no"?>
<!DOCTYPE svg PUBLIC "-//W3C//DTD SVG 1.1//EN" "http://www.w3.org/Graphics/SVG/1.1/DTD/svg11.dtd">
<svg width="100%" height="100%" viewBox="0 0 186 38" version="1.1" xmlns="http://www.w3.org/2000/svg" xmlns:xlink="http://www.w3.org/1999/xlink" xml:space="preserve" xmlns:serif="http://www.serif.com/" style="fill-rule:evenodd;clip-rule:evenodd;stroke-linejoin:round;stroke-miterlimit:2;">
    <g transform="matrix(0.049185,0,0,0.049185,93.062899,19.314961)">
        <g transform="matrix(1,0,0,1,-2022.916667,-447.916667)">
            <g transform="matrix(17.361113,0,0,17.361113,-2267.535904,-29910.983075)">
                <g transform="matrix(1,0,0,1,0,5.184)">
                    <g transform="matrix(21.5251,0,0,21.5251,187.847,1751.672)">
                        <path d="M0.761,-0.7C0.776,-0.7 0.783,-0.693 0.783,-0.678L0.783,-0.583C0.783,-0.568 0.776,-0.561 0.761,-0.561L0.26,-0.561C0.241,-0.561 0.227,-0.556 0.219,-0.546C0.211,-0.536 0.207,-0.522 0.207,-0.505L0.207,-0.471C0.207,-0.434 0.224,-0.415 0.259,-0.415L0.634,-0.415C0.692,-0.415 0.736,-0.4 0.765,-0.37C0.794,-0.34 0.809,-0.298 0.809,-0.242L0.809,-0.162C0.809,-0.113 0.795,-0.074 0.766,-0.044C0.737,-0.014 0.693,0.001 0.632,0.001L0.078,0.001C0.063,0.001 0.055,-0.006 0.055,-0.021L0.055,-0.116C0.055,-0.131 0.063,-0.138 0.078,-0.138L0.603,-0.138C0.622,-0.138 0.636,-0.143 0.644,-0.153C0.652,-0.163 0.656,-0.177 0.656,-0.194L0.656,-0.235C0.656,-0.272 0.639,-0.291 0.604,-0.291L0.229,-0.291C0.171,-0.291 0.127,-0.306 0.098,-0.336C0.069,-0.366 0.054,-0.408 0.054,-0.464L0.054,-0.537C0.054,-0.586 0.068,-0.625 0.097,-0.655C0.126,-0.685 0.17,-0.7 0.231,-0.7L0.761,-0.7Z" style="fill:white;fill-rule:nonzero;"/>
                    </g>
                    <g transform="matrix(21.5251,0,0,21.5251,211.352409,1751.672)">
                        <path d="M0.184,-0.549C0.199,-0.549 0.206,-0.541 0.206,-0.526L0.206,-0.022C0.206,-0.007 0.199,-0 0.184,-0L0.086,-0C0.071,-0 0.064,-0.007 0.064,-0.022L0.064,-0.526C0.064,-0.541 0.071,-0.549 0.086,-0.549L0.184,-0.549ZM0.184,-0.752C0.199,-0.752 0.206,-0.745 0.206,-0.73L0.206,-0.635C0.206,-0.62 0.199,-0.612 0.184,-0.612L0.086,-0.612C0.071,-0.612 0.063,-0.62 0.063,-0.635L0.063,-0.73C0.063,-0.745 0.071,-0.752 0.086,-0.752L0.184,-0.752Z" style="fill:white;fill-rule:nonzero;"/>
                    </g>
                    <g transform="matrix(21.5251,0,0,21.5251,222.222585,1751.672)">
                        <path d="M0.572,-0.549C0.606,-0.549 0.634,-0.546 0.656,-0.54C0.678,-0.534 0.696,-0.525 0.709,-0.512C0.722,-0.499 0.731,-0.482 0.736,-0.461C0.741,-0.44 0.744,-0.415 0.744,-0.384L0.744,-0.289C0.744,-0.268 0.739,-0.253 0.73,-0.245C0.721,-0.237 0.706,-0.233 0.687,-0.233L0.182,-0.233L0.182,-0.209C0.182,-0.178 0.19,-0.155 0.205,-0.141C0.22,-0.127 0.249,-0.12 0.292,-0.12L0.709,-0.12C0.721,-0.12 0.727,-0.114 0.727,-0.102L0.727,-0.018C0.727,-0.006 0.721,-0 0.709,-0L0.278,-0C0.233,-0 0.195,-0.004 0.164,-0.011C0.134,-0.018 0.109,-0.03 0.091,-0.047C0.073,-0.063 0.059,-0.084 0.051,-0.11C0.043,-0.136 0.039,-0.167 0.039,-0.203L0.039,-0.347C0.039,-0.383 0.043,-0.414 0.051,-0.439C0.059,-0.465 0.072,-0.486 0.091,-0.502C0.109,-0.518 0.134,-0.53 0.164,-0.538C0.194,-0.546 0.232,-0.55 0.278,-0.55L0.571,-0.55L0.572,-0.549ZM0.183,-0.322L0.588,-0.322C0.599,-0.322 0.605,-0.328 0.605,-0.339L0.605,-0.381C0.605,-0.402 0.601,-0.416 0.592,-0.425C0.583,-0.434 0.567,-0.438 0.544,-0.438L0.293,-0.438C0.25,-0.438 0.221,-0.431 0.206,-0.417C0.191,-0.403 0.183,-0.381 0.183,-0.349L0.183,-0.322Z" style="fill:white;fill-rule:nonzero;"/>
                    </g>
                    <g transform="matrix(21.5251,0,0,21.5251,244.264287,1751.672)">
                        <path d="M0.578,-0.549C0.59,-0.549 0.596,-0.543 0.596,-0.531L0.596,-0.447C0.596,-0.435 0.59,-0.429 0.578,-0.429L0.312,-0.429C0.291,-0.429 0.273,-0.427 0.259,-0.423C0.245,-0.419 0.234,-0.413 0.225,-0.405C0.217,-0.397 0.211,-0.385 0.208,-0.371C0.205,-0.357 0.203,-0.339 0.203,-0.319L0.203,-0.022C0.203,-0.007 0.196,-0 0.181,-0L0.083,-0C0.068,-0 0.06,-0.007 0.06,-0.022L0.06,-0.346C0.06,-0.382 0.064,-0.413 0.072,-0.438C0.08,-0.464 0.093,-0.485 0.111,-0.501C0.129,-0.517 0.154,-0.529 0.184,-0.537C0.214,-0.545 0.252,-0.549 0.297,-0.549L0.578,-0.549Z" style="fill:white;fill-rule:nonzero;"/>
                    </g>
                    <g transform="matrix(21.5251,0,0,21.5251,262.517572,1751.672)">
                        <path d="M0.809,-0.549C0.854,-0.549 0.891,-0.545 0.921,-0.537C0.951,-0.529 0.976,-0.517 0.995,-0.501C1.014,-0.485 1.027,-0.464 1.034,-0.438C1.042,-0.412 1.046,-0.382 1.046,-0.346L1.046,-0.022C1.046,-0.007 1.039,0 1.024,0L0.926,0C0.911,0 0.904,-0.007 0.904,-0.022L0.904,-0.312C0.904,-0.333 0.903,-0.35 0.9,-0.364C0.897,-0.378 0.892,-0.39 0.885,-0.398C0.878,-0.406 0.867,-0.412 0.854,-0.416C0.841,-0.42 0.823,-0.422 0.801,-0.422L0.625,-0.422L0.625,-0.022C0.625,-0.007 0.617,0 0.602,0L0.504,0C0.489,0 0.482,-0.007 0.482,-0.022L0.482,-0.422L0.312,-0.422C0.291,-0.422 0.273,-0.42 0.259,-0.416C0.245,-0.412 0.234,-0.406 0.225,-0.398C0.217,-0.39 0.211,-0.378 0.208,-0.364C0.205,-0.35 0.203,-0.332 0.203,-0.312L0.203,-0.022C0.203,-0.007 0.196,0 0.181,0L0.083,0C0.068,0 0.06,-0.007 0.06,-0.022L0.06,-0.346C0.06,-0.382 0.064,-0.413 0.072,-0.438C0.08,-0.464 0.093,-0.485 0.111,-0.501C0.129,-0.517 0.154,-0.529 0.184,-0.537C0.214,-0.545 0.252,-0.549 0.297,-0.549L0.809,-0.549Z" style="fill:white;fill-rule:nonzero;"/>
                    </g>
                    <g transform="matrix(21.5251,0,0,21.5251,291.404256,1751.672)">
                        <path d="M0.572,-0.549C0.606,-0.549 0.634,-0.546 0.656,-0.54C0.678,-0.534 0.696,-0.525 0.709,-0.512C0.722,-0.499 0.731,-0.482 0.736,-0.461C0.741,-0.44 0.744,-0.415 0.744,-0.384L0.744,-0.289C0.744,-0.268 0.739,-0.253 0.73,-0.245C0.721,-0.237 0.706,-0.233 0.687,-0.233L0.182,-0.233L0.182,-0.209C0.182,-0.178 0.19,-0.155 0.205,-0.141C0.22,-0.127 0.249,-0.12 0.292,-0.12L0.709,-0.12C0.721,-0.12 0.727,-0.114 0.727,-0.102L0.727,-0.018C0.727,-0.006 0.721,-0 0.709,-0L0.278,-0C0.233,-0 0.195,-0.004 0.164,-0.011C0.134,-0.018 0.109,-0.03 0.091,-0.047C0.073,-0.063 0.059,-0.084 0.051,-0.11C0.043,-0.136 0.039,-0.167 0.039,-0.203L0.039,-0.347C0.039,-0.383 0.043,-0.414 0.051,-0.439C0.059,-0.465 0.072,-0.486 0.091,-0.502C0.109,-0.518 0.134,-0.53 0.164,-0.538C0.194,-0.546 0.232,-0.55 0.278,-0.55L0.571,-0.55L0.572,-0.549ZM0.183,-0.322L0.588,-0.322C0.599,-0.322 0.605,-0.328 0.605,-0.339L0.605,-0.381C0.605,-0.402 0.601,-0.416 0.592,-0.425C0.583,-0.434 0.567,-0.438 0.544,-0.438L0.293,-0.438C0.25,-0.438 0.221,-0.431 0.206,-0.417C0.191,-0.403 0.183,-0.381 0.183,-0.349L0.183,-0.322Z" style="fill:white;fill-rule:nonzero;"/>
                    </g>
                    <g transform="matrix(21.5251,0,0,21.5251,313.445959,1751.672)">
                        <path d="M0.585,-0.549C0.63,-0.549 0.667,-0.545 0.698,-0.537C0.729,-0.529 0.753,-0.517 0.771,-0.501C0.789,-0.485 0.803,-0.464 0.811,-0.438C0.819,-0.412 0.823,-0.382 0.823,-0.346L0.823,-0.022C0.823,-0.007 0.816,0 0.801,0L0.703,0C0.688,0 0.681,-0.007 0.681,-0.022L0.681,-0.312C0.681,-0.333 0.68,-0.35 0.677,-0.364C0.674,-0.378 0.669,-0.39 0.661,-0.398C0.653,-0.406 0.643,-0.412 0.63,-0.416C0.617,-0.42 0.599,-0.422 0.578,-0.422L0.312,-0.422C0.291,-0.422 0.273,-0.42 0.259,-0.416C0.245,-0.412 0.234,-0.406 0.225,-0.398C0.217,-0.39 0.211,-0.378 0.208,-0.364C0.205,-0.35 0.203,-0.332 0.203,-0.312L0.203,-0.022C0.203,-0.007 0.196,0 0.181,0L0.083,0C0.068,0 0.06,-0.007 0.06,-0.022L0.06,-0.346C0.06,-0.382 0.064,-0.413 0.072,-0.438C0.08,-0.464 0.093,-0.485 0.111,-0.501C0.129,-0.517 0.154,-0.529 0.184,-0.537C0.214,-0.545 0.252,-0.549 0.297,-0.549L0.585,-0.549Z" style="fill:white;fill-rule:nonzero;"/>
                    </g>
                    <g transform="matrix(21.5251,0,0,21.5251,337.532545,1751.672)">
                        <path d="M0.668,-0.549L0.668,-0.728C0.668,-0.743 0.675,-0.75 0.69,-0.75L0.788,-0.75C0.803,-0.75 0.81,-0.743 0.81,-0.728L0.81,-0.202C0.81,-0.166 0.806,-0.135 0.798,-0.11C0.79,-0.084 0.777,-0.063 0.759,-0.047C0.741,-0.031 0.716,-0.019 0.685,-0.011C0.654,-0.004 0.617,0 0.572,0L0.292,0C0.247,0 0.209,-0.004 0.179,-0.011C0.149,-0.018 0.124,-0.03 0.106,-0.047C0.088,-0.063 0.074,-0.084 0.067,-0.11C0.059,-0.136 0.055,-0.167 0.055,-0.203L0.055,-0.347C0.055,-0.383 0.059,-0.414 0.067,-0.439C0.075,-0.465 0.088,-0.486 0.106,-0.502C0.124,-0.518 0.149,-0.53 0.179,-0.538C0.209,-0.546 0.247,-0.55 0.292,-0.55L0.668,-0.55L0.668,-0.549ZM0.558,-0.12C0.58,-0.12 0.598,-0.122 0.612,-0.126C0.626,-0.13 0.637,-0.136 0.645,-0.144C0.653,-0.152 0.659,-0.163 0.663,-0.177C0.666,-0.191 0.668,-0.209 0.668,-0.23L0.668,-0.429L0.306,-0.429C0.285,-0.429 0.267,-0.427 0.253,-0.423C0.239,-0.419 0.228,-0.413 0.219,-0.405C0.211,-0.397 0.205,-0.385 0.202,-0.371C0.199,-0.357 0.197,-0.339 0.197,-0.319L0.197,-0.23C0.197,-0.209 0.199,-0.191 0.202,-0.177C0.205,-0.163 0.211,-0.152 0.219,-0.144C0.227,-0.136 0.239,-0.13 0.253,-0.126C0.267,-0.122 0.285,-0.12 0.306,-0.12L0.558,-0.12Z" style="fill:white;fill-rule:nonzero;"/>
                    </g>
                </g>
            </g>
            <g transform="matrix(4.166667,0,0,4.166667,0,0)">
                <path d="M184.754,47.456L143.546,23.668C129.892,15.78 112.913,15.78 99.246,23.668L58.05,47.456C44.383,55.343 35.9,70.048 35.9,85.823L35.9,133.398C35.9,149.173 44.383,163.869 58.05,171.76L99.246,195.556C99.617,195.773 99.983,195.968 100.363,196.177L93.346,170.302L67.504,155.377C59.675,150.856 54.812,142.439 54.812,133.398L54.812,85.827C54.812,76.781 59.675,68.356 67.504,63.835L108.704,40.048C112.621,37.79 117.008,36.665 121.396,36.665C125.784,36.665 130.175,37.79 134.088,40.048L175.296,63.835C183.121,68.356 187.988,76.781 187.988,85.827L187.988,133.398C187.988,142.44 183.121,150.856 175.296,155.377L140.313,175.581L140.313,197.248C141.409,196.727 142.488,196.169 143.546,195.556L184.754,171.76C198.412,163.868 206.904,149.172 206.904,133.398L206.904,85.827C206.904,70.048 198.412,55.344 184.754,47.456Z" style="fill:white;fill-rule:nonzero;"/>
            </g>
            <g transform="matrix(4.166667,0,0,4.166667,0,0)">
                <path d="M120.721,57.381L76.596,82.86C76.175,83.102 75.917,83.552 75.917,84.035L75.917,138.231C75.917,138.981 76.525,139.589 77.275,139.589L100.6,139.589C103.662,139.589 106.342,141.639 107.146,144.593L118.729,187.314C119.146,188.847 121.4,188.547 121.4,186.96L121.4,124.593C121.4,122.905 120.033,121.539 118.346,121.539L95.325,121.539C94.571,121.539 93.962,120.931 93.962,120.181L93.962,94.456C93.962,93.973 94.224,93.523 94.645,93.281L120.72,78.223C121.141,77.981 121.662,77.981 122.083,78.223L148.158,93.281C148.579,93.523 148.837,93.973 148.837,94.456L148.837,129.206C148.837,129.956 149.449,130.564 150.199,130.564L165.528,130.564C166.278,130.564 166.886,129.956 166.886,129.206L166.886,84.035C166.886,83.552 166.628,83.102 166.207,82.86L122.082,57.381C121.661,57.139 121.14,57.139 120.719,57.381L120.721,57.381Z" style="fill:rgb(205,170,145);fill-rule:nonzero;"/>
            </g>
        </g>
    </g>
</svg>
