<?xml version="1.0" encoding="UTF-8" standalone="no"?>
<!DOCTYPE svg PUBLIC "-//W3C//DTD SVG 1.1//EN" "http://www.w3.org/Graphics/SVG/1.1/DTD/svg11.dtd">
<svg width="100%" height="100%" viewBox="0 0 50 60" version="1.1" xmlns="http://www.w3.org/2000/svg" xmlns:xlink="http://www.w3.org/1999/xlink" xml:space="preserve" xmlns:serif="http://www.serif.com/" style="fill-rule:evenodd;clip-rule:evenodd;stroke-linejoin:round;stroke-miterlimit:2;">
    <g transform="matrix(0.033774,0,0,0.033774,-76.320523,-59.876564)">
        <path d="M3051.17,3334.71L3442.58,2943.29C3557.49,2828.39 3618.13,2678.89 3624.51,2527.44L3051.17,3100.78L3051.17,3334.71ZM3615.62,2391.62C3604.39,2327.35 3583.15,2264.54 3551.9,2205.76L3051.17,2706.5L3051.17,2956.07L3615.62,2391.62ZM3495.14,2117.83C3479.1,2097.08 3461.58,2077.13 3442.58,2058.13L3442.5,2058.05C3414.72,2030.28 3384.91,2005.69 3353.55,1984.26L3051.17,2286.64L3051.17,2561.79L3495.14,2117.83ZM3261.02,1932.08C3194.26,1901.66 3123.14,1883.53 3051.17,1877.71L3051.17,2141.94L3261.02,1932.08ZM2948.83,1877.71C2876.87,1883.53 2805.74,1901.65 2738.98,1932.08L2948.83,2141.94L2948.83,1877.71ZM2646.45,1984.26C2615.09,2005.69 2585.28,2030.28 2557.5,2058.05L2557.42,2058.13C2538.42,2077.13 2520.9,2097.08 2504.87,2117.83L2948.83,2561.79L2948.83,2286.64L2646.45,1984.26ZM2448.1,2205.76C2416.86,2264.54 2395.61,2327.35 2384.38,2391.62L2948.83,2956.07L2948.83,2706.5L2448.1,2205.76ZM2375.5,2527.44C2381.88,2678.89 2442.51,2828.39 2557.42,2943.29L2948.83,3334.71L2948.83,3100.78L2375.5,2527.44ZM3514.94,3015.65L3000,3530.58L2485.07,3015.65C2343.42,2874 2272.59,2687.33 2272.59,2500.71C2272.59,2320.8 2338.43,2140.86 2470.08,2001.23L2470.08,2000.77L2485.07,1985.78C2626.72,1844.13 2813.38,1773.3 3000,1773.3C3186.62,1773.3 3373.28,1844.13 3514.94,1985.78L3529.93,2000.77L3529.93,2001.23C3661.58,2140.86 3727.41,2320.8 3727.41,2500.71C3727.41,2687.33 3656.59,2874 3514.94,3015.65Z" style="fill:rgb(21,49,36);fill-rule:nonzero;"/>
    </g>
</svg>
